<?xml version="1.0" encoding="UTF-8" standalone="no"?><!DOCTYPE svg PUBLIC "-//W3C//DTD SVG 1.1//EN" "http://www.w3.org/Graphics/SVG/1.1/DTD/svg11.dtd"><svg width="428px" height="87px" viewBox="0 0 428 87" version="1.1" xmlns="http://www.w3.org/2000/svg" xmlns:xlink="http://www.w3.org/1999/xlink" xml:space="preserve" xmlns:serif="http://www.serif.com/" style="fill-rule:evenodd;clip-rule:evenodd;stroke-linejoin:round;stroke-miterlimit:2;"><g><g><path d="M21.219,61.745c-2.768,0 -5.426,-0.461 -7.974,-1.384c-2.548,-0.922 -4.821,-2.328 -6.82,-4.217c-1.999,-1.889 -3.569,-4.262 -4.712,-7.117c-1.142,-2.856 -1.713,-6.216 -1.713,-10.082c-0,-3.866 0.582,-7.227 1.746,-10.083c1.164,-2.855 2.735,-5.227 4.712,-7.116c1.977,-1.889 4.239,-3.295 6.787,-4.218c2.548,-0.922 5.206,-1.384 7.974,-1.384c2.767,0 5.425,0.462 7.973,1.384c2.548,0.923 4.811,2.329 6.788,4.218c1.977,1.889 3.547,4.261 4.711,7.116c1.164,2.856 1.747,6.217 1.747,10.083c-0,3.866 -0.572,7.226 -1.714,10.082c-1.142,2.855 -2.713,5.228 -4.711,7.117c-1.999,1.889 -4.273,3.295 -6.821,4.217c-2.548,0.923 -5.206,1.384 -7.973,1.384Zm-0,-4.02c1.889,0 3.393,-0.779 4.514,-2.339c1.12,-1.56 1.933,-3.745 2.438,-6.557c0.505,-2.811 0.758,-6.106 0.758,-9.884c-0,-3.778 -0.253,-7.073 -0.758,-9.885c-0.505,-2.811 -1.318,-5.008 -2.438,-6.59c-1.121,-1.581 -2.625,-2.372 -4.514,-2.372c-1.845,0 -3.339,0.791 -4.481,2.372c-1.142,1.582 -1.966,3.779 -2.471,6.59c-0.506,2.812 -0.758,6.107 -0.758,9.885c-0,3.778 0.252,7.073 0.758,9.884c0.505,2.812 1.329,4.997 2.471,6.557c1.142,1.56 2.636,2.339 4.481,2.339Z" style="fill:#d7f0d3;fill-rule:nonzero;"/><path d="M45.798,60.427l0,-3.361l3.032,-0.725c0.043,-1.581 0.065,-3.261 0.065,-5.041l0,-8.797c0,-1.23 -0.011,-2.218 -0.032,-2.965c-0.022,-0.747 -0.044,-1.45 -0.066,-2.109c-0.022,-0.659 -0.055,-1.428 -0.099,-2.306l-3.559,-0.593l0,-2.702l14.564,-4.547l1.186,0.725l0.329,4.547c1.801,-2.109 3.46,-3.515 4.975,-4.218c1.516,-0.703 3.196,-1.054 5.041,-1.054c2.856,-0 5.228,0.933 7.117,2.801c1.889,1.867 2.834,4.601 2.834,8.204l-0,13.113c-0,1.801 0.022,3.493 0.066,5.074l2.767,0.593l0,3.361l-18.253,0l0,-3.361l2.834,-0.659c0.044,-1.581 0.066,-3.273 0.066,-5.074l-0,-12.191c-0,-1.757 -0.231,-2.998 -0.692,-3.723c-0.462,-0.725 -1.219,-1.087 -2.274,-1.087c-1.23,-0 -2.658,0.571 -4.283,1.713l-0,15.321c-0,1.823 0.022,3.548 0.066,5.173l2.504,0.527l-0,3.361l-18.188,0Z" style="fill:#d7f0d3;fill-rule:nonzero;"/><path d="M109.455,61.745c-3.119,0 -6.074,-0.428 -8.863,-1.285c-2.79,-0.857 -5.25,-2.208 -7.381,-4.053c-2.131,-1.845 -3.811,-4.206 -5.041,-7.084c-1.23,-2.877 -1.845,-6.337 -1.845,-10.378c-0,-4.13 0.659,-7.644 1.977,-10.544c1.318,-2.899 3.097,-5.25 5.337,-7.051c2.241,-1.801 4.789,-3.119 7.644,-3.954c2.856,-0.834 5.799,-1.252 8.831,-1.252c2.767,0 5.162,0.297 7.182,0.89c2.021,0.593 3.954,1.395 5.799,2.405l0.264,10.478l-5.404,-0l-2.108,-9.028c-1.186,-0.571 -2.482,-0.857 -3.888,-0.857c-2.109,0 -4.086,0.626 -5.931,1.878c-1.845,1.252 -3.339,3.273 -4.481,6.063c-1.142,2.79 -1.713,6.469 -1.713,11.038c-0,4.525 0.56,8.171 1.68,10.938c1.12,2.768 2.592,4.767 4.415,5.997c1.823,1.23 3.745,1.845 5.766,1.845c1.538,0 3.075,-0.351 4.613,-1.054l2.043,-8.764l5.403,-0l-0.263,10.345c-1.626,0.923 -3.614,1.725 -5.964,2.406c-2.35,0.681 -5.041,1.021 -8.072,1.021Z" style="fill:#d7f0d3;fill-rule:nonzero;"/><path d="M126.983,60.427l0,-3.361l3.031,-0.725c0.044,-1.581 0.066,-3.261 0.066,-5.041l0,-31.795l-3.558,-0.659l-0,-2.965l15.024,-2.966l1.121,0.725l-0.264,9.16l0,9.687c1.757,-2.065 3.372,-3.449 4.843,-4.152c1.472,-0.703 3.131,-1.054 4.976,-1.054c2.943,-0 5.37,0.933 7.281,2.801c1.911,1.867 2.867,4.601 2.867,8.204l-0,13.113c-0,1.801 0.022,3.493 0.066,5.074l2.767,0.593l0,3.361l-18.253,0l-0,-3.361l2.834,-0.659c0.043,-1.581 0.065,-3.273 0.065,-5.074l0,-12.191c0,-1.801 -0.186,-3.053 -0.56,-3.756c-0.373,-0.703 -1.109,-1.054 -2.207,-1.054c-0.659,-0 -1.373,0.209 -2.142,0.626c-0.769,0.417 -1.548,0.999 -2.339,1.746l-0,14.662c-0,1.823 0.022,3.548 0.066,5.173l2.504,0.527l-0,3.361l-18.188,0Z" style="fill:#d7f0d3;fill-rule:nonzero;"/><path d="M192.946,61.481c-2.065,0 -3.723,-0.406 -4.975,-1.219c-1.252,-0.812 -2.164,-1.966 -2.735,-3.459c-1.274,1.406 -2.559,2.537 -3.855,3.393c-1.296,0.857 -3.13,1.285 -5.502,1.285c-2.592,0 -4.668,-0.746 -6.228,-2.24c-1.559,-1.494 -2.339,-3.58 -2.339,-6.26c0,-1.714 0.384,-3.24 1.153,-4.58c0.769,-1.34 2.131,-2.57 4.086,-3.69c1.955,-1.121 4.712,-2.142 8.27,-3.065c0.527,-0.131 1.142,-0.296 1.845,-0.494c0.703,-0.197 1.428,-0.384 2.175,-0.56l-0,-2.372c-0,-2.812 -0.319,-4.745 -0.956,-5.799c-0.637,-1.054 -1.988,-1.582 -4.053,-1.582l-0.988,0l0,2.241c0,2.68 -0.549,4.58 -1.647,5.7c-1.099,1.12 -2.351,1.68 -3.757,1.68c-2.679,0 -4.349,-1.186 -5.008,-3.558c0,-2.856 1.351,-5.173 4.053,-6.952c2.702,-1.779 6.71,-2.669 12.026,-2.669c4.569,-0 7.787,0.999 9.654,2.998c1.867,1.999 2.801,5.261 2.801,9.786l-0,15.09c-0,0.747 0.373,1.121 1.12,1.121c0.263,-0 0.527,-0.099 0.791,-0.297c0.263,-0.198 0.593,-0.582 0.988,-1.153l1.911,1.054c-0.791,2.021 -1.878,3.46 -3.262,4.316c-1.384,0.857 -3.24,1.285 -5.568,1.285Zm-14.3,-10.543c0,1.625 0.33,2.833 0.989,3.624c0.659,0.791 1.471,1.186 2.438,1.186c0.307,0 0.648,-0.076 1.021,-0.23c0.374,-0.154 0.956,-0.494 1.747,-1.022l-0,-10.807c-0.659,0.176 -1.296,0.418 -1.911,0.725c-0.923,0.439 -1.867,1.186 -2.834,2.241c-0.966,1.054 -1.45,2.482 -1.45,4.283Z" style="fill:#d7f0d3;fill-rule:nonzero;"/><path d="M203.094,60.427l0,-3.361l2.965,-0.659c0.044,-1.625 0.066,-3.327 0.066,-5.107l0,-7.874c0,-1.802 -0.011,-3.306 -0.033,-4.514c-0.022,-1.208 -0.077,-2.471 -0.164,-3.789l-3.559,-0.593l0,-2.702l15.288,-4.547l1.186,0.725l-0.197,9.818l-0,13.542c-0,1.823 0.022,3.526 0.066,5.107l2.767,0.593l0,3.361l-18.385,0Zm9.16,-37.034c-1.67,0 -3.097,-0.538 -4.284,-1.614c-1.186,-1.077 -1.779,-2.428 -1.779,-4.053c0,-1.669 0.593,-3.031 1.779,-4.086c1.187,-1.054 2.614,-1.581 4.284,-1.581c1.669,-0 3.097,0.527 4.283,1.581c1.186,1.055 1.779,2.417 1.779,4.086c0,1.625 -0.593,2.976 -1.779,4.053c-1.186,1.076 -2.614,1.614 -4.283,1.614Z" style="fill:#d7f0d3;fill-rule:nonzero;"/><path d="M224.115,60.427l0,-3.361l3.031,-0.725c0.044,-1.581 0.066,-3.261 0.066,-5.041l0,-8.797c0,-1.23 -0.011,-2.218 -0.033,-2.965c-0.022,-0.747 -0.044,-1.45 -0.066,-2.109c-0.021,-0.659 -0.054,-1.428 -0.098,-2.306l-3.559,-0.593l0,-2.702l14.563,-4.547l1.187,0.725l0.329,4.547c1.801,-2.109 3.46,-3.515 4.975,-4.218c1.516,-0.703 3.196,-1.054 5.041,-1.054c2.856,-0 5.228,0.933 7.117,2.801c1.889,1.867 2.834,4.601 2.834,8.204l-0,13.113c-0,1.801 0.022,3.493 0.066,5.074l2.767,0.593l0,3.361l-18.253,0l-0,-3.361l2.833,-0.659c0.044,-1.581 0.066,-3.273 0.066,-5.074l0,-12.191c0,-1.757 -0.23,-2.998 -0.692,-3.723c-0.461,-0.725 -1.219,-1.087 -2.273,-1.087c-1.23,-0 -2.658,0.571 -4.283,1.713l-0,15.321c-0,1.823 0.022,3.548 0.066,5.173l2.504,0.527l-0,3.361l-18.188,0Z" style="fill:#d7f0d3;fill-rule:nonzero;"/><path d="M284.345,39.735l-1.648,0c0,2.944 0.011,5.777 0.033,8.501c0.022,2.724 0.055,5.426 0.099,8.105l1.384,0c2.592,0 4.646,-0.691 6.161,-2.075c1.516,-1.384 2.274,-3.438 2.274,-6.162c-0,-2.987 -0.692,-5.129 -2.076,-6.425c-1.384,-1.296 -3.459,-1.944 -6.227,-1.944Zm-0.132,-18.187l-1.384,-0c-0.044,2.372 -0.077,4.766 -0.099,7.183c-0.022,2.416 -0.033,4.854 -0.033,7.314l1.187,0c2.328,0 4.052,-0.67 5.173,-2.01c1.12,-1.34 1.68,-3.218 1.68,-5.634c-0,-2.196 -0.516,-3.888 -1.549,-5.074c-1.032,-1.186 -2.69,-1.779 -4.975,-1.779Zm-18.912,-0.198l-0,-3.888l22.207,0c3.998,0 7.139,0.44 9.423,1.318c2.285,0.879 3.91,2.065 4.877,3.559c0.966,1.493 1.449,3.185 1.449,5.074c0,1.449 -0.329,2.822 -0.988,4.118c-0.659,1.296 -1.823,2.427 -3.493,3.394c-1.669,0.966 -4.041,1.713 -7.117,2.24c5.14,0.528 8.809,1.736 11.005,3.625c2.197,1.889 3.295,4.371 3.295,7.446c0,1.318 -0.296,2.691 -0.89,4.119c-0.593,1.427 -1.658,2.756 -3.196,3.986c-1.537,1.231 -3.723,2.219 -6.556,2.966c-2.834,0.747 -6.491,1.12 -10.972,1.12l-19.044,0l-0,-3.888l4.547,-0.461c0.044,-2.724 0.065,-5.448 0.065,-8.171l0,-17.858c0,-2.768 -0.021,-5.514 -0.065,-8.237l-4.547,-0.462Z" style="fill:#d7f0d3;fill-rule:nonzero;"/><path d="M308.793,60.427l-0,-3.361l2.965,-0.659c0.044,-1.625 0.066,-3.327 0.066,-5.107l-0,-7.874c-0,-1.802 -0.011,-3.306 -0.033,-4.514c-0.022,-1.208 -0.077,-2.471 -0.165,-3.789l-3.558,-0.593l-0,-2.702l15.288,-4.547l1.186,0.725l-0.198,9.818l0,13.542c0,1.823 0.022,3.526 0.066,5.107l2.768,0.593l-0,3.361l-18.385,0Zm9.159,-37.034c-1.669,0 -3.097,-0.538 -4.283,-1.614c-1.186,-1.077 -1.779,-2.428 -1.779,-4.053c-0,-1.669 0.593,-3.031 1.779,-4.086c1.186,-1.054 2.614,-1.581 4.283,-1.581c1.67,-0 3.097,0.527 4.284,1.581c1.186,1.055 1.779,2.417 1.779,4.086c-0,1.625 -0.593,2.976 -1.779,4.053c-1.187,1.076 -2.614,1.614 -4.284,1.614Z" style="fill:#d7f0d3;fill-rule:nonzero;"/><path d="M329.682,60.427l-0,-3.361l3.163,-0.725c0.044,-1.581 0.066,-3.261 0.066,-5.041l-0,-8.863c-0,-1.23 -0.011,-2.218 -0.033,-2.965c-0.022,-0.747 -0.044,-1.439 -0.066,-2.076c-0.022,-0.637 -0.055,-1.395 -0.099,-2.273l-3.558,-0.593l-0,-2.702l14.563,-4.547l1.186,0.725l0.527,7.644c0.879,-2.856 2.142,-4.964 3.789,-6.326c1.648,-1.362 3.262,-2.043 4.844,-2.043c1.625,-0 2.998,0.472 4.118,1.417c1.121,0.944 1.79,2.427 2.01,4.448c-0.088,1.757 -0.615,3.13 -1.581,4.118c-0.967,0.989 -2.109,1.483 -3.427,1.483c-2.021,0 -3.866,-1.208 -5.535,-3.624l-0.33,-0.462c-0.791,0.879 -1.57,2.021 -2.339,3.427c-0.769,1.406 -1.285,2.856 -1.549,4.349l0,8.633c0,1.713 0.022,3.338 0.066,4.876l5.14,1.12l0,3.361l-20.955,0Z" style="fill:#d7f0d3;fill-rule:nonzero;"/><path d="M373.569,44.546c0,3.339 0.549,5.909 1.648,7.71c1.098,1.801 2.526,2.702 4.283,2.702c0.966,-0 1.867,-0.242 2.702,-0.725l-0,-20.033c-0.703,-0.395 -1.516,-0.593 -2.438,-0.593c-1.802,0 -3.284,0.912 -4.449,2.735c-1.164,1.823 -1.746,4.558 -1.746,8.204Zm9.555,16.672l-0.593,-3.559c-2.504,2.548 -5.579,3.822 -9.225,3.822c-2.417,0 -4.613,-0.626 -6.59,-1.878c-1.977,-1.252 -3.548,-3.119 -4.712,-5.601c-1.164,-2.482 -1.746,-5.59 -1.746,-9.324c0,-3.691 0.725,-6.832 2.175,-9.424c1.449,-2.591 3.305,-4.568 5.568,-5.93c2.262,-1.362 4.58,-2.043 6.952,-2.043c1.757,-0 3.251,0.264 4.481,0.791c1.23,0.527 2.306,1.274 3.229,2.24l-0,-10.807l-4.217,-0.659l-0,-2.965l15.419,-2.966l1.121,0.725l-0.264,9.16l0,33.673l2.372,0.593l0,3.361l-13.97,0.791Z" style="fill:#d7f0d3;fill-rule:nonzero;"/><path d="M412.251,61.481c-4.569,0 -8.611,-1.076 -12.125,-3.229l0.329,-8.434l5.997,-0l1.054,6.853c0.747,0.307 1.516,0.538 2.306,0.692c0.791,0.154 1.604,0.23 2.439,0.23c1.669,0 2.965,-0.263 3.888,-0.79c0.922,-0.527 1.383,-1.406 1.383,-2.636c0,-0.879 -0.34,-1.67 -1.021,-2.372c-0.681,-0.703 -2.12,-1.34 -4.316,-1.911l-3.756,-0.989c-2.592,-0.703 -4.569,-1.944 -5.931,-3.723c-1.362,-1.779 -2.043,-3.943 -2.043,-6.491c0,-3.295 1.263,-6.018 3.789,-8.171c2.526,-2.153 6.162,-3.229 10.906,-3.229c2.021,-0 3.899,0.22 5.634,0.659c1.736,0.439 3.504,1.098 5.305,1.977l-0.527,7.446l-6.063,0l-1.449,-5.865c-0.44,-0.088 -0.912,-0.164 -1.417,-0.23c-0.505,-0.066 -1.109,-0.099 -1.812,-0.099c-1.23,-0 -2.274,0.274 -3.13,0.824c-0.857,0.549 -1.285,1.394 -1.285,2.537c-0,0.703 0.307,1.383 0.922,2.042c0.615,0.659 2.065,1.296 4.349,1.911l3.691,0.989c3.075,0.835 5.282,2.131 6.622,3.888c1.34,1.757 2.01,3.932 2.01,6.524c-0,3.866 -1.417,6.765 -4.25,8.698c-2.834,1.933 -6.667,2.899 -11.499,2.899Z" style="fill:#d7f0d3;fill-rule:nonzero;"/></g><g><path d="M183.603,77.768l0.038,-3.591l11.457,0l0.019,3.591l-1.767,0l-0.323,-2.47l-1.748,0c-0.013,0.773 -0.022,1.558 -0.029,2.356c-0.006,0.798 -0.009,1.603 -0.009,2.413l-0,2.907c-0,0.773 0.006,1.546 0.019,2.318l1.52,0.152l-0,1.121l-6.821,0l-0,-1.121l1.501,-0.152c0.013,-0.76 0.019,-1.526 0.019,-2.299l-0,-5.301c-0,-0.798 -0.013,-1.596 -0.038,-2.394l-1.729,0l-0.323,2.47l-1.786,0Z" style="fill:#d7f0d3;fill-rule:nonzero;"/><path d="M196.01,86.565l0,-0.969l0.874,-0.209c0.013,-0.456 0.019,-0.94 0.019,-1.453l0,-9.168l-1.026,-0.19l0,-0.855l4.332,-0.855l0.323,0.209l-0.076,2.641l0,2.793c0.507,-0.595 0.972,-0.994 1.397,-1.197c0.424,-0.202 0.902,-0.304 1.434,-0.304c0.849,0 1.549,0.27 2.1,0.808c0.551,0.538 0.826,1.327 0.826,2.365l0,3.781c0,0.52 0.006,1.007 0.019,1.463l0.798,0.171l0,0.969l-5.263,0l0,-0.969l0.817,-0.19c0.013,-0.456 0.019,-0.943 0.019,-1.463l0,-3.515c0,-0.519 -0.054,-0.88 -0.161,-1.083c-0.108,-0.202 -0.32,-0.304 -0.637,-0.304c-0.19,0 -0.396,0.061 -0.617,0.181c-0.222,0.12 -0.447,0.288 -0.675,0.503l0,4.228c0,0.526 0.006,1.023 0.019,1.491l0.722,0.152l0,0.969l-5.244,0Z" style="fill:#d7f0d3;fill-rule:nonzero;"/><path d="M212.654,78.034c-0.291,0 -0.538,0.216 -0.741,0.646c-0.203,0.431 -0.317,1.235 -0.342,2.413l0.893,0c0.456,0 0.763,-0.091 0.922,-0.275c0.158,-0.184 0.237,-0.516 0.237,-0.998c0,-0.658 -0.098,-1.121 -0.294,-1.387c-0.197,-0.266 -0.422,-0.399 -0.675,-0.399Zm0.057,8.835c-0.95,0 -1.795,-0.196 -2.536,-0.589c-0.741,-0.392 -1.327,-0.959 -1.758,-1.7c-0.431,-0.741 -0.646,-1.631 -0.646,-2.67c0,-0.823 0.146,-1.539 0.437,-2.147c0.291,-0.608 0.684,-1.117 1.178,-1.529c0.494,-0.412 1.045,-0.719 1.653,-0.922c0.608,-0.202 1.222,-0.304 1.843,-0.304c0.912,0 1.669,0.187 2.271,0.561c0.601,0.374 1.054,0.874 1.358,1.501c0.304,0.627 0.456,1.327 0.456,2.099c0,0.203 -0.006,0.377 -0.019,0.523c-0.013,0.146 -0.038,0.307 -0.076,0.484l-5.282,0c0.101,0.925 0.377,1.596 0.827,2.014c0.449,0.418 0.953,0.627 1.51,0.627c0.481,0 0.896,-0.085 1.245,-0.256c0.348,-0.171 0.655,-0.383 0.921,-0.637l0.741,0.722c-0.405,0.773 -0.959,1.337 -1.662,1.691c-0.703,0.355 -1.524,0.532 -2.461,0.532Z" style="fill:#d7f0d3;fill-rule:nonzero;"/><path d="M227.911,86.945c-0.798,0 -1.564,-0.133 -2.299,-0.399c-0.735,-0.266 -1.39,-0.671 -1.967,-1.216c-0.576,-0.544 -1.029,-1.228 -1.358,-2.052c-0.329,-0.823 -0.494,-1.792 -0.494,-2.907c-0,-1.114 0.168,-2.083 0.504,-2.907c0.335,-0.823 0.788,-1.507 1.358,-2.052c0.57,-0.544 1.222,-0.95 1.957,-1.216c0.735,-0.266 1.501,-0.399 2.299,-0.399c0.798,0 1.564,0.133 2.299,0.399c0.735,0.266 1.387,0.672 1.957,1.216c0.57,0.545 1.023,1.229 1.358,2.052c0.336,0.824 0.504,1.793 0.504,2.907c0,1.115 -0.165,2.084 -0.494,2.907c-0.329,0.824 -0.782,1.508 -1.358,2.052c-0.577,0.545 -1.232,0.95 -1.967,1.216c-0.735,0.266 -1.501,0.399 -2.299,0.399Zm0,-1.159c0.545,0 0.979,-0.224 1.302,-0.674c0.323,-0.45 0.557,-1.08 0.703,-1.891c0.145,-0.81 0.218,-1.76 0.218,-2.85c0,-1.089 -0.073,-2.039 -0.218,-2.85c-0.146,-0.81 -0.38,-1.444 -0.703,-1.9c-0.323,-0.456 -0.757,-0.684 -1.302,-0.684c-0.532,0 -0.963,0.228 -1.292,0.684c-0.329,0.456 -0.567,1.09 -0.712,1.9c-0.146,0.811 -0.219,1.761 -0.219,2.85c0,1.09 0.073,2.04 0.219,2.85c0.145,0.811 0.383,1.441 0.712,1.891c0.329,0.45 0.76,0.674 1.292,0.674Z" style="fill:#d7f0d3;fill-rule:nonzero;"/><path d="M234.884,86.565l0,-0.969l0.855,-0.19c0.013,-0.481 0.022,-0.956 0.028,-1.425c0.007,-0.468 0.01,-0.937 0.01,-1.406l0,-3.838l-1.083,0l-0,-1.254l1.14,-0.133c0.114,-0.836 0.31,-1.497 0.589,-1.985c0.279,-0.488 0.602,-0.915 0.969,-1.283c0.367,-0.367 0.855,-0.693 1.463,-0.978c0.608,-0.285 1.267,-0.428 1.976,-0.428c0.532,0 1.023,0.102 1.473,0.304c0.449,0.203 0.731,0.577 0.845,1.121c0,0.266 -0.038,0.494 -0.114,0.684c0.089,-0.101 0.18,-0.202 0.276,-0.304c0.094,-0.101 0.193,-0.202 0.294,-0.304c0.443,-0.443 1.067,-0.804 1.871,-1.083c0.805,-0.278 1.701,-0.418 2.689,-0.418c0.633,0 1.191,0.108 1.672,0.323c0.481,0.216 0.785,0.608 0.912,1.178c-0,0.431 -0.124,0.786 -0.371,1.064c-0.247,0.279 -0.592,0.418 -1.035,0.418c-0.367,0 -0.703,-0.133 -1.007,-0.399c-0.304,-0.266 -0.614,-0.696 -0.931,-1.292l-0.152,-0.304c-0.089,0.064 -0.174,0.13 -0.257,0.2c-0.082,0.07 -0.167,0.149 -0.256,0.237c-0.241,0.241 -0.45,0.488 -0.627,0.741c-0.177,0.254 -0.317,0.57 -0.418,0.95c-0.101,0.38 -0.171,0.887 -0.209,1.52l3.686,0l1.9,-0.304l0.342,0.209l-0.057,2.793l-0,3.943c-0,0.526 0.006,1.016 0.019,1.472l0.798,0.171l-0,0.969l-5.301,0l-0,-0.969l0.855,-0.19c0.013,-0.468 0.019,-0.959 0.019,-1.472l0,-2.879c0,-0.519 -0.003,-0.95 -0.01,-1.292c-0.006,-0.342 -0.022,-0.684 -0.047,-1.026l-2.223,0l-0,5.244c-0,0.469 0.006,0.938 0.019,1.406l0.893,0.209l-0,0.969l-5.415,0l-0,-0.969l0.855,-0.19c0.013,-0.481 0.022,-0.956 0.029,-1.425c0.006,-0.468 0.009,-0.937 0.009,-1.406l-0,-3.838l-2.47,0l0,5.187c0,0.456 0.006,0.906 0.019,1.349l1.083,0.323l-0,0.969l-5.605,0Zm5.187,-12.578l-0.057,-0.133c-0.291,0.355 -0.481,0.805 -0.57,1.349c-0.089,0.545 -0.127,1.248 -0.114,2.109l2.584,0c0.076,-0.443 0.18,-0.829 0.313,-1.159c0.133,-0.329 0.289,-0.627 0.466,-0.893c-0.089,0.051 -0.193,0.095 -0.314,0.133c-0.12,0.038 -0.256,0.057 -0.408,0.057c-0.431,0 -0.798,-0.117 -1.102,-0.351c-0.304,-0.234 -0.57,-0.605 -0.798,-1.112Z" style="fill:#d7f0d3;fill-rule:nonzero;"/><path d="M257.836,86.869c-0.861,0 -1.666,-0.18 -2.413,-0.541c-0.747,-0.361 -1.352,-0.903 -1.815,-1.625c-0.462,-0.722 -0.693,-1.634 -0.693,-2.736c-0,-1.051 0.241,-1.947 0.722,-2.688c0.481,-0.741 1.134,-1.305 1.957,-1.691c0.823,-0.386 1.742,-0.58 2.755,-0.58c0.709,0 1.33,0.133 1.862,0.399c0.532,0.266 0.953,0.618 1.263,1.055c0.311,0.437 0.479,0.915 0.504,1.434c-0.241,0.735 -0.722,1.102 -1.444,1.102c-0.393,0 -0.754,-0.152 -1.083,-0.456c-0.329,-0.304 -0.513,-0.874 -0.551,-1.71l-0.038,-0.798l-0.076,0c-0.291,0 -0.599,0.111 -0.921,0.333c-0.323,0.222 -0.596,0.589 -0.817,1.102c-0.222,0.513 -0.333,1.206 -0.333,2.08c0,1.052 0.225,1.859 0.675,2.423c0.449,0.564 1.054,0.845 1.814,0.845c0.418,0 0.779,-0.085 1.083,-0.256c0.304,-0.171 0.589,-0.383 0.855,-0.637l0.741,0.722c-0.405,0.773 -0.956,1.337 -1.653,1.691c-0.697,0.355 -1.495,0.532 -2.394,0.532Z" style="fill:#d7f0d3;fill-rule:nonzero;"/><path d="M262.966,86.565l-0,-0.969l0.855,-0.19c0.013,-0.468 0.019,-0.959 0.019,-1.472l-0,-2.271c-0,-0.519 -0.003,-0.953 -0.01,-1.301c-0.006,-0.348 -0.022,-0.713 -0.047,-1.093l-1.026,-0.171l-0,-0.779l4.408,-1.311l0.342,0.209l-0.057,2.831l-0,3.905c-0,0.526 0.006,1.016 0.019,1.472l0.798,0.171l-0,0.969l-5.301,0Zm2.641,-10.678c-0.481,0 -0.893,-0.155 -1.235,-0.465c-0.342,-0.31 -0.513,-0.7 -0.513,-1.169c-0,-0.481 0.171,-0.874 0.513,-1.178c0.342,-0.304 0.754,-0.456 1.235,-0.456c0.481,0 0.893,0.152 1.235,0.456c0.342,0.304 0.513,0.697 0.513,1.178c-0,0.469 -0.171,0.859 -0.513,1.169c-0.342,0.31 -0.754,0.465 -1.235,0.465Z" style="fill:#d7f0d3;fill-rule:nonzero;"/><path d="M276.456,86.869c-0.595,0 -1.074,-0.117 -1.435,-0.351c-0.361,-0.234 -0.623,-0.567 -0.788,-0.998c-0.367,0.406 -0.738,0.732 -1.112,0.979c-0.373,0.247 -0.902,0.37 -1.586,0.37c-0.747,0 -1.346,-0.215 -1.796,-0.646c-0.449,-0.43 -0.674,-1.032 -0.674,-1.805c0,-0.494 0.111,-0.934 0.332,-1.32c0.222,-0.386 0.615,-0.741 1.178,-1.064c0.564,-0.323 1.359,-0.618 2.385,-0.884c0.152,-0.038 0.329,-0.085 0.532,-0.142c0.203,-0.057 0.412,-0.111 0.627,-0.162l0,-0.684c0,-0.81 -0.092,-1.368 -0.276,-1.672c-0.183,-0.304 -0.573,-0.456 -1.168,-0.456l-0.285,0l0,0.646c0,0.773 -0.158,1.321 -0.475,1.644c-0.317,0.323 -0.678,0.484 -1.083,0.484c-0.773,0 -1.254,-0.342 -1.444,-1.026c0,-0.823 0.39,-1.491 1.169,-2.004c0.779,-0.513 1.934,-0.77 3.467,-0.77c1.317,0 2.245,0.289 2.784,0.865c0.538,0.576 0.807,1.517 0.807,2.821l0,4.351c0,0.216 0.108,0.323 0.323,0.323c0.076,0 0.152,-0.028 0.228,-0.085c0.076,-0.057 0.171,-0.168 0.285,-0.333l0.551,0.304c-0.228,0.583 -0.541,0.998 -0.94,1.245c-0.399,0.247 -0.935,0.37 -1.606,0.37Zm-4.123,-3.04c0,0.469 0.095,0.817 0.285,1.045c0.19,0.228 0.424,0.342 0.703,0.342c0.089,0 0.187,-0.022 0.295,-0.066c0.107,-0.044 0.275,-0.143 0.503,-0.295l0,-3.116c-0.19,0.051 -0.374,0.121 -0.551,0.209c-0.266,0.127 -0.538,0.342 -0.817,0.646c-0.279,0.304 -0.418,0.716 -0.418,1.235Z" style="fill:#d7f0d3;fill-rule:nonzero;"/><path d="M279.363,86.565l0,-0.969l0.855,-0.19c0.013,-0.481 0.022,-0.956 0.028,-1.425c0.007,-0.468 0.01,-0.937 0.01,-1.406l-0,-7.809l-1.026,-0.19l-0,-0.855l4.389,-0.855l0.323,0.209l-0.076,2.641l-0,6.859c-0,0.469 0.003,0.941 0.01,1.416c0.006,0.475 0.015,0.953 0.028,1.434l0.855,0.171l-0,0.969l-5.396,0Z" style="fill:#d7f0d3;fill-rule:nonzero;"/><path d="M297.242,75.298l-0,-1.121l5.187,0l-0,1.121l-1.615,0.247l-0,11.02l-1.995,0l-6.308,-8.835l-0,7.467l2.242,0.247l-0,1.121l-5.187,0l-0,-1.121l1.615,-0.228l-0,-9.348l-0.323,-0.456l-1.292,-0.095l-0,-1.14l4.845,0l5.073,6.954l-0,-5.586l-2.242,-0.247Z" style="fill:#d7f0d3;fill-rule:nonzero;"/><path d="M309.155,86.945c-0.798,0 -1.564,-0.133 -2.299,-0.399c-0.735,-0.266 -1.39,-0.671 -1.967,-1.216c-0.576,-0.544 -1.029,-1.228 -1.358,-2.052c-0.329,-0.823 -0.494,-1.792 -0.494,-2.907c-0,-1.114 0.168,-2.083 0.503,-2.907c0.336,-0.823 0.789,-1.507 1.359,-2.052c0.57,-0.544 1.222,-0.95 1.957,-1.216c0.735,-0.266 1.501,-0.399 2.299,-0.399c0.798,0 1.564,0.133 2.299,0.399c0.735,0.266 1.387,0.672 1.957,1.216c0.57,0.545 1.023,1.229 1.358,2.052c0.336,0.824 0.504,1.793 0.504,2.907c-0,1.115 -0.165,2.084 -0.494,2.907c-0.329,0.824 -0.782,1.508 -1.358,2.052c-0.577,0.545 -1.232,0.95 -1.967,1.216c-0.735,0.266 -1.501,0.399 -2.299,0.399Zm-0,-1.159c0.545,0 0.978,-0.224 1.301,-0.674c0.323,-0.45 0.558,-1.08 0.703,-1.891c0.146,-0.81 0.219,-1.76 0.219,-2.85c0,-1.089 -0.073,-2.039 -0.219,-2.85c-0.145,-0.81 -0.38,-1.444 -0.703,-1.9c-0.323,-0.456 -0.756,-0.684 -1.301,-0.684c-0.532,0 -0.963,0.228 -1.292,0.684c-0.329,0.456 -0.567,1.09 -0.713,1.9c-0.145,0.811 -0.218,1.761 -0.218,2.85c-0,1.09 0.073,2.04 0.218,2.85c0.146,0.811 0.384,1.441 0.713,1.891c0.329,0.45 0.76,0.674 1.292,0.674Z" style="fill:#d7f0d3;fill-rule:nonzero;"/><path d="M315.805,77.768l0.038,-3.591l11.457,0l0.019,3.591l-1.767,0l-0.323,-2.47l-1.748,0c-0.013,0.773 -0.022,1.558 -0.029,2.356c-0.006,0.798 -0.009,1.603 -0.009,2.413l-0,2.907c-0,0.773 0.006,1.546 0.019,2.318l1.52,0.152l-0,1.121l-6.821,0l-0,-1.121l1.501,-0.152c0.013,-0.76 0.019,-1.526 0.019,-2.299l-0,-5.301c-0,-0.798 -0.013,-1.596 -0.038,-2.394l-1.729,0l-0.323,2.47l-1.786,0Z" style="fill:#d7f0d3;fill-rule:nonzero;"/><path d="M333.513,75.355l-0.152,0c-0.013,0.773 -0.022,1.552 -0.029,2.337c-0.006,0.786 -0.009,1.577 -0.009,2.375l-0,0.684l0.266,0c0.709,0 1.257,-0.262 1.643,-0.788c0.387,-0.526 0.58,-1.213 0.58,-2.062c-0,-0.861 -0.206,-1.501 -0.618,-1.919c-0.411,-0.418 -0.972,-0.627 -1.681,-0.627Zm-5.282,-0.057l-0,-1.121l5.187,0c1.431,0 2.571,0.152 3.42,0.456c0.849,0.304 1.463,0.738 1.843,1.302c0.38,0.564 0.57,1.225 0.57,1.985c-0,0.722 -0.171,1.384 -0.513,1.986c-0.342,0.602 -0.922,1.083 -1.739,1.444c-0.817,0.361 -1.928,0.541 -3.334,0.541l-0.342,0l-0,1.606c-0,0.576 0.006,1.168 0.019,1.776l1.691,0.171l-0,1.121l-6.802,0l-0,-1.121l1.311,-0.133c0.013,-0.76 0.019,-1.529 0.019,-2.308l-0,-5.254c-0,-0.772 -0.006,-1.545 -0.019,-2.318l-1.311,-0.133Z" style="fill:#d7f0d3;fill-rule:nonzero;"/><path d="M345.331,75.355l-0.418,0c-0.013,0.773 -0.022,1.539 -0.029,2.299c-0.006,0.76 -0.009,1.457 -0.009,2.09l0.418,0c0.608,0 1.073,-0.107 1.396,-0.323c0.323,-0.215 0.545,-0.49 0.665,-0.826c0.121,-0.336 0.181,-0.687 0.181,-1.055c-0,-0.747 -0.193,-1.298 -0.58,-1.653c-0.386,-0.354 -0.927,-0.532 -1.624,-0.532Zm-5.472,-0.057l-0,-1.121l6.536,0c1.507,0 2.66,0.273 3.458,0.817c0.798,0.545 1.197,1.299 1.197,2.261c-0,0.406 -0.101,0.805 -0.304,1.197c-0.203,0.393 -0.551,0.745 -1.045,1.055c-0.494,0.31 -1.191,0.535 -2.09,0.674c0.849,0.102 1.501,0.292 1.957,0.57c0.456,0.279 0.782,0.643 0.978,1.093c0.197,0.45 0.333,0.991 0.409,1.624l0.228,1.824l1.368,0.152l-0,1.121c-0.367,0.076 -0.665,0.137 -0.893,0.181c-0.228,0.044 -0.447,0.076 -0.656,0.095c-0.209,0.019 -0.478,0.028 -0.807,0.028c-0.887,0 -1.599,-0.161 -2.138,-0.484c-0.538,-0.323 -0.851,-0.909 -0.94,-1.758l-0.19,-1.862c-0.051,-0.595 -0.187,-1.057 -0.409,-1.387c-0.221,-0.329 -0.573,-0.494 -1.054,-0.494l-0.589,0l-0,2.252c-0,0.728 0.006,1.453 0.019,2.175l1.387,0.133l-0,1.121l-6.422,0l-0,-1.121l1.311,-0.133c0.013,-0.76 0.019,-1.529 0.019,-2.308l-0,-5.254c-0,-0.772 -0.006,-1.545 -0.019,-2.318l-1.311,-0.133Z" style="fill:#d7f0d3;fill-rule:nonzero;"/><path d="M358.821,86.945c-0.798,0 -1.564,-0.133 -2.299,-0.399c-0.735,-0.266 -1.39,-0.671 -1.967,-1.216c-0.576,-0.544 -1.029,-1.228 -1.358,-2.052c-0.329,-0.823 -0.494,-1.792 -0.494,-2.907c-0,-1.114 0.168,-2.083 0.503,-2.907c0.336,-0.823 0.789,-1.507 1.359,-2.052c0.57,-0.544 1.222,-0.95 1.957,-1.216c0.735,-0.266 1.501,-0.399 2.299,-0.399c0.798,0 1.564,0.133 2.299,0.399c0.735,0.266 1.387,0.672 1.957,1.216c0.57,0.545 1.023,1.229 1.358,2.052c0.336,0.824 0.504,1.793 0.504,2.907c-0,1.115 -0.165,2.084 -0.494,2.907c-0.329,0.824 -0.782,1.508 -1.359,2.052c-0.576,0.545 -1.231,0.95 -1.966,1.216c-0.735,0.266 -1.501,0.399 -2.299,0.399Zm-0,-1.159c0.545,0 0.978,-0.224 1.301,-0.674c0.323,-0.45 0.558,-1.08 0.703,-1.891c0.146,-0.81 0.219,-1.76 0.219,-2.85c0,-1.089 -0.073,-2.039 -0.219,-2.85c-0.145,-0.81 -0.38,-1.444 -0.703,-1.9c-0.323,-0.456 -0.756,-0.684 -1.301,-0.684c-0.532,0 -0.963,0.228 -1.292,0.684c-0.329,0.456 -0.567,1.09 -0.713,1.9c-0.145,0.811 -0.218,1.761 -0.218,2.85c-0,1.09 0.073,2.04 0.218,2.85c0.146,0.811 0.384,1.441 0.713,1.891c0.329,0.45 0.76,0.674 1.292,0.674Z" style="fill:#d7f0d3;fill-rule:nonzero;"/><path d="M372.501,86.945c-0.798,0 -1.564,-0.133 -2.299,-0.399c-0.735,-0.266 -1.39,-0.671 -1.967,-1.216c-0.576,-0.544 -1.029,-1.228 -1.358,-2.052c-0.329,-0.823 -0.494,-1.792 -0.494,-2.907c-0,-1.114 0.168,-2.083 0.503,-2.907c0.336,-0.823 0.789,-1.507 1.359,-2.052c0.57,-0.544 1.222,-0.95 1.957,-1.216c0.735,-0.266 1.501,-0.399 2.299,-0.399c0.798,0 1.564,0.133 2.299,0.399c0.735,0.266 1.387,0.672 1.957,1.216c0.57,0.545 1.023,1.229 1.358,2.052c0.336,0.824 0.504,1.793 0.504,2.907c-0,1.115 -0.165,2.084 -0.494,2.907c-0.329,0.824 -0.782,1.508 -1.359,2.052c-0.576,0.545 -1.231,0.95 -1.966,1.216c-0.735,0.266 -1.501,0.399 -2.299,0.399Zm-0,-1.159c0.545,0 0.978,-0.224 1.301,-0.674c0.323,-0.45 0.558,-1.08 0.703,-1.891c0.146,-0.81 0.219,-1.76 0.219,-2.85c-0,-1.089 -0.073,-2.039 -0.219,-2.85c-0.145,-0.81 -0.38,-1.444 -0.703,-1.9c-0.323,-0.456 -0.756,-0.684 -1.301,-0.684c-0.532,0 -0.963,0.228 -1.292,0.684c-0.329,0.456 -0.567,1.09 -0.713,1.9c-0.145,0.811 -0.218,1.761 -0.218,2.85c-0,1.09 0.073,2.04 0.218,2.85c0.146,0.811 0.384,1.441 0.713,1.891c0.329,0.45 0.76,0.674 1.292,0.674Z" style="fill:#d7f0d3;fill-rule:nonzero;"/><path d="M379.493,75.298l-0,-1.121l9.975,0l0.133,3.23l-1.786,0l-0.361,-2.109l-2.831,0c-0.013,0.697 -0.022,1.4 -0.029,2.109c-0.006,0.71 -0.009,1.419 -0.009,2.128l1.767,0l0.228,-1.368l1.197,0l-0,4.123l-1.197,0l-0.247,-1.539l-1.748,0l-0,2.328c-0,0.741 0.006,1.472 0.019,2.194l1.691,0.171l-0,1.121l-6.802,0l-0,-1.121l1.311,-0.133c0.013,-0.76 0.019,-1.529 0.019,-2.308l-0,-5.254c-0,-0.772 -0.006,-1.545 -0.019,-2.318l-1.311,-0.133Z" style="fill:#d7f0d3;fill-rule:nonzero;"/><path d="M399.709,75.355l-0.152,0c-0.013,0.773 -0.022,1.552 -0.029,2.337c-0.006,0.786 -0.009,1.577 -0.009,2.375l-0,0.684l0.266,0c0.709,0 1.257,-0.262 1.643,-0.788c0.387,-0.526 0.58,-1.213 0.58,-2.062c-0,-0.861 -0.206,-1.501 -0.618,-1.919c-0.411,-0.418 -0.972,-0.627 -1.681,-0.627Zm-5.282,-0.057l-0,-1.121l5.187,0c1.431,0 2.571,0.152 3.42,0.456c0.849,0.304 1.463,0.738 1.843,1.302c0.38,0.564 0.57,1.225 0.57,1.985c-0,0.722 -0.171,1.384 -0.513,1.986c-0.342,0.602 -0.922,1.083 -1.739,1.444c-0.817,0.361 -1.928,0.541 -3.334,0.541l-0.342,0l-0,1.606c-0,0.576 0.006,1.168 0.019,1.776l1.691,0.171l-0,1.121l-6.802,0l-0,-1.121l1.311,-0.133c0.013,-0.76 0.019,-1.529 0.019,-2.308l-0,-5.254c-0,-0.772 -0.006,-1.545 -0.019,-2.318l-1.311,-0.133Z" style="fill:#d7f0d3;fill-rule:nonzero;"/><path d="M406.055,75.298l-0,-1.121l9.975,0l0.133,3.23l-1.786,0l-0.361,-2.109l-2.831,0c-0.013,0.697 -0.022,1.4 -0.029,2.109c-0.006,0.71 -0.009,1.419 -0.009,2.128l1.767,0l0.228,-1.368l1.197,0l-0,4.123l-1.197,0l-0.247,-1.539l-1.748,0l-0,2.328c-0,0.741 0.006,1.472 0.019,2.194l1.691,0.171l-0,1.121l-6.802,0l-0,-1.121l1.311,-0.133c0.013,-0.76 0.019,-1.529 0.019,-2.308l-0,-5.254c-0,-0.772 -0.006,-1.545 -0.019,-2.318l-1.311,-0.133Z" style="fill:#d7f0d3;fill-rule:nonzero;"/><path d="M422.262,75.355l-0.152,0c-0.013,0.773 -0.022,1.552 -0.029,2.337c-0.006,0.786 -0.009,1.577 -0.009,2.375l-0,0.684l0.266,0c0.709,0 1.257,-0.262 1.643,-0.788c0.387,-0.526 0.58,-1.213 0.58,-2.062c-0,-0.861 -0.206,-1.501 -0.618,-1.919c-0.411,-0.418 -0.972,-0.627 -1.681,-0.627Zm-5.282,-0.057l-0,-1.121l5.187,0c1.431,0 2.571,0.152 3.42,0.456c0.849,0.304 1.463,0.738 1.843,1.302c0.38,0.564 0.57,1.225 0.57,1.985c-0,0.722 -0.171,1.384 -0.513,1.986c-0.342,0.602 -0.922,1.083 -1.739,1.444c-0.817,0.361 -1.928,0.541 -3.334,0.541l-0.342,0l-0,1.606c-0,0.576 0.006,1.168 0.019,1.776l1.691,0.171l-0,1.121l-6.802,0l-0,-1.121l1.311,-0.133c0.013,-0.76 0.019,-1.529 0.019,-2.308l-0,-5.254c-0,-0.772 -0.006,-1.545 -0.019,-2.318l-1.311,-0.133Z" style="fill:#d7f0d3;fill-rule:nonzero;"/></g></g></svg>