<?xml version="1.0" standalone="no"?>
<!DOCTYPE svg PUBLIC "-//W3C//DTD SVG 20010904//EN"
 "http://www.w3.org/TR/2001/REC-SVG-20010904/DTD/svg10.dtd">
<svg version="1.0" xmlns="http://www.w3.org/2000/svg"
 width="700.000000pt" height="700.000000pt" viewBox="0 0 700.000000 700.000000"
 preserveAspectRatio="xMidYMid meet">
<metadata>
Created by potrace 1.14, written by Peter Selinger 2001-2017
</metadata>
<g transform="translate(0.000000,700.000000) scale(0.100000,-0.100000)"
fill="#000000" stroke="none">
<path d="M0 3500 l0 -3500 1530 0 1530 0 0 440 0 440 -435 0 -435 0 -2 872 -3
873 -437 3 -438 2 0 870 0 870 438 2 437 3 3 873 2 872 435 0 435 0 0 440 0
440 -1530 0 -1530 0 0 -3500z"/>
<path d="M3940 6560 l0 -440 435 0 435 0 2 -872 3 -873 438 -3 437 -2 0 -870
0 -870 -437 -2 -438 -3 -3 -873 -2 -872 -435 0 -435 0 0 -440 0 -440 1530 0
1530 0 0 3500 0 3500 -1530 0 -1530 0 0 -440z"/>
<path d="M2190 3060 l0 -440 435 0 435 0 2 -872 3 -873 435 0 435 0 3 873 2
872 435 0 435 0 0 440 0 440 -1310 0 -1310 0 0 -440z"/>
</g>
</svg>
